<?xml version="1.0" encoding="UTF-8"?>
<svg id="_레이어_11" data-name=" 레이어 11" xmlns="http://www.w3.org/2000/svg" viewBox="0 0 1104 684">
  <defs>
    <style>
      .cls-1 {
        fill: #070704;
      }

      .cls-2 {
        fill: #daf7b5;
      }
    </style>
  </defs>
  <path class="cls-2" d="M547.01,105.72c-28.81,50.19-57.62,100.38-86.42,150.57-.36.9-2.65,6.76.41,12.96,3.39,6.9,10.49,8.35,11.26,8.5,57.97.58,115.93,1.15,173.9,1.74.82-.28,7.05-2.52,9.41-9.11,1.78-4.94.29-9.25-.17-10.44-30.87-51.4-61.74-102.81-92.61-154.22-.27-.35-3.37-4.23-8.47-3.93-4.41.27-6.93,3.44-7.3,3.93h-.01Z"/>
  <path d="M495.13,196.59c-2.02,3.86-3.68,7.96-6.44,11.69-11.64,7.65-19.89,19.03-25.69,32.12-.67,1.53-1.64,2.41-2.78,2.81-.95.35-3.73-.74-3.25-2.2,4.34-13.12,12.57-24.26,23.03-33.32,4.9-4.24,9.32-8.57,15.1-11.11l.03.02h0Z"/>
  <path d="M625.87,208.62c-3.93-5.6-8.33-11.36-10.86-17.88l16.4,15.15c9.09,9.57,18.28,18.32,24.34,30.39.76,1.51.49,2.66-.94,3.64-1.08.74-2.61.29-3.55-1.2-7.05-11.24-15.18-21.8-25.39-30.1h0Z"/>
  <path class="cls-1" d="M530.79,192.37c-3.86,1.69-7.13-.9-7.59-4.35-.48-3.63,1.91-7.03,6.08-6.37,2.53.39,3.62,2.71,3.98,4.65.43,2.28.12,4.94-2.47,6.07Z"/>
  <path class="cls-1" d="M549.35,220.54c-1.46-.87-1.38-2.72-1-3.64,1.56-3.69,7.54,3.1,12.62-1.66.99-.93,2.78-.7,3.47.3.61.89.81,2.48-.34,3.59-3.78,3.64-9.98,4.22-14.74,1.41h0Z"/>
  <path class="cls-1" d="M581.5,190.23c-3.15.74-5.51-1.51-6.13-3.94-.62-2.43.08-5.6,2.94-6.6s5.93,1.05,6.67,3.35c.86,2.69-.21,6.42-3.47,7.19h-.02.01Z"/>
  <path d="M584.37,276.64c4.04,17.3,4.11,35.21,1.87,52.96,5.11,1.31,10.26,3.53,12.38,8.32,1.99,4.5-1.92,9.31-6.46,10.51-10.6,2.84-23.11-6.88-20.87-12.92,2.24-6.01,8.6-1.02,9.86-9.62,2.42-16.4,1.28-32.5-1.78-48.82,1.27.35,3.63-.21,5-.43h0ZM594.12,340.05c-2.66-3.12-5.7-4.27-9.1-5.29-.05,2.87-.21,5.1-2.84,6.58,4.08,2.51,8.92,2.48,11.95-1.3h-.01ZM579.06,339.97c.31-.67.43-2.05.2-3.18-.26-1.3-1.13-.35-1.58-.16-.69.28-1.4.54-.61,1.46.31.38.79.8,2.01,1.89h-.02Z"/>
  <path d="M532.73,277.45c-3.88,16.01-6.26,32.6-5.65,49.18,4.85.72,8.12,3.73,8.79,7.4,1.69,9.01-14.61,16.02-22.83,11.16-1.84-1.08-3.53-2.49-3.86-3.91-1.36-5.68,5.8-10.01,11.98-13.44.39-17.29,1.79-33.96,5.82-50.38l5.75-.03v.02h0ZM514.52,339.64c6.69,2.33,16.5-.23,15.61-5.47-.13-.82-1.96-2.1-2.53-1.43-.99,1.13-1.45,2.82-2.86,2.74-1.07-.07-2.1-.76-3.06-1.85-2.35,1.9-5.13,3.13-7.15,6.01h-.02.01Z"/>
</svg>