<?xml version="1.0" encoding="UTF-8"?>
<svg id="_레이어_11" data-name=" 레이어 11" xmlns="http://www.w3.org/2000/svg" xmlns:xlink="http://www.w3.org/1999/xlink" viewBox="0 0 1104 684">
  <defs>
    <style>
      .cls-1 {
        fill: none;
      }

      .cls-2 {
        fill: #daf7b5;
      }

      .cls-3 {
        clip-path: url(#clippath);
      }
    </style>
    <clipPath id="clippath">
      <rect class="cls-1" x="469.94" y="370.94" width="216" height="258"/>
    </clipPath>
  </defs>
  <g class="cls-3">
    <g>
      <path class="cls-2" d="M565.3,375.23c-27.98,52.32-55.98,104.65-83.98,156.97-.35.93-2.51,7.01.84,13.25,3.71,6.95,11.05,8.21,11.85,8.34,59.61-1.27,119.23-2.55,178.84-3.8.84-.31,7.16-2.8,9.38-9.63,1.67-5.11,0-9.48-.51-10.68-33.4-51.66-66.79-103.31-100.21-154.95-.29-.35-3.6-4.22-8.84-3.75-4.53.42-7.02,3.75-7.38,4.26h.01Z"/>
      <path d="M547.3,472.73c2.29-4.5,7.36-5.92,12.09-5.64,4,.22,10.2,1.2,12.16,5.26.64,1.33,2.53,1.68,3.73.98,1.36-.8,1.62-2.4.98-3.73-2.85-5.93-10.94-7.63-16.87-7.97-6.54-.38-13.67,2.22-16.8,8.36-1.6,3.13,3.11,5.9,4.71,2.75h0Z"/>
      <path d="M603.71,471.22c2.29-4.5,7.36-5.92,12.09-5.64,4,.22,10.2,1.2,12.16,5.26.64,1.33,2.53,1.67,3.73.98,1.36-.8,1.62-2.4.98-3.73-2.85-5.94-10.94-7.63-16.87-7.97-6.54-.38-13.67,2.22-16.8,8.36-1.6,3.13,3.11,5.9,4.71,2.75h0Z"/>
      <path d="M559.05,489.9c3.02,3.57,8.33,4.24,12.65,5.02,5.36.97,10.82,1.53,16.29,1.49,9.74-.05,20.62-1.38,28.47-7.65,2.74-2.18-1.15-6.02-3.85-3.86-6.58,5.24-16.54,6.01-24.62,6.06-4.67.02-9.36-.36-13.98-1.15-3.47-.6-8.67-.87-11.09-3.77-2.27-2.69-6.11,1.18-3.85,3.86l-.02-.02v.02Z"/>
      <path d="M558.45,488.51c-.91,10.34,5.58,18.64,14.73,22.63,10.02,4.35,21.2,5.19,31.78,2.55,3.4-.84,1.96-6.12-1.46-5.26-14.16,3.51-41.34-.02-39.6-19.92.31-3.49-5.15-3.48-5.45,0h0Z"/>
      <path d="M507.85,475.88c-6.29,1.13-12.54,2.64-18.49,5.02-5.64,2.26-11.64,5.19-16,9.54s-4.44,10.65-.67,15.62c3.76,4.97,9.76,8.12,15.62,10.01,7.53,2.44,15.54,2.79,23.4,3,3.51.09,3.51-5.37,0-5.46-7.51-.2-15.09-.51-22.27-2.91-3.31-1.11-6.54-2.68-9.33-4.84-2.24-1.75-4.69-4.3-4.87-7.28-.18-2.99,2.6-5.02,4.76-6.55,2.91-2.06,6.04-3.8,9.29-5.23,6.35-2.8,13.18-4.42,20-5.66,3.45-.62,1.98-5.88-1.45-5.26h.02-.01Z"/>
      <path d="M651.46,484.71c7.45-2.35,14.53-5.9,20.78-10.61,5.84-4.4,12.29-9.96,13.65-17.53.25-1.46-.4-2.95-1.91-3.37-1.33-.36-3.09.46-3.36,1.91-1.16,6.48-6.98,11.25-12.04,14.93-5.65,4.11-11.93,7.3-18.58,9.39-3.35,1.06-1.91,6.34,1.45,5.26v.02h0Z"/>
      <path d="M538.56,555.05c8.89,7.41,9.76,19.44,8.6,30.2-1.24,11.47-4.27,22.88-9.56,33.15-1.6,3.11,3.09,5.88,4.71,2.75,5.89-11.43,9.13-23.99,10.4-36.75,1.16-11.85-.62-25.14-10.29-33.22-2.67-2.24-6.56,1.6-3.85,3.86v.02h-.01Z"/>
      <path d="M611.35,552.99c4.58,2.08,6.93,6.41,8.14,11.12,1.42,5.48,1.89,11.3,2.07,16.95.36,11.58-1.24,23.06-4.64,34.13-1.04,3.37,4.22,4.81,5.25,1.46,3.8-12.31,5.44-25.27,4.73-38.14-.58-10.54-1.75-25.21-12.8-30.24-3.16-1.44-5.94,3.26-2.74,4.71h-.02.01Z"/>
      <path d="M539.43,624.35c.13-.24.25-.49.42-.73.05-.09.45-.62.22-.33.38-.46.8-.87,1.25-1.26.24-.2.04-.04,0,0,.11-.09.22-.16.33-.24.24-.16.45-.31.69-.46.27-.16.56-.33.85-.47.13-.05.25-.13.38-.18.42-.2-.31.11.13-.06,1.09-.44,2.22-.73,3.38-.93.51-.09-.24,0,.29-.04.25,0,.53-.04.78-.05.56,0,1.13,0,1.69.05.33.04-.04,0-.09,0,.13.02.25.05.38.07.25.05.49.11.75.18.11.04.71.26.49.16-.27-.13.11.05.13.07.15.09.29.16.44.24.15.07.27.18.4.27-.04-.04-.29-.26-.07-.04.09.09.51.53.36.36-.18-.22.07.11.09.13.07.13.16.25.22.38.15.31,0,.07,0,.04.06.2,0,.38.02.13.02-.46-.13.27.06-.11-.06.13-.42.58-.2.33-.09.09-.58.47-.29.29-.11.07-.24.15-.35.2-.38.2.25-.07-.18.07-.29.11-.58.18-.89.24-.15.04-.31.05-.45.09.07,0,.27-.04-.05,0-.71.07-1.42.11-2.13.15-1.75.11-3.51.22-5.25.31-.85.05-1.69.11-2.55.15-.09,0-1.09.02-1.09.02.02-.11.56.29.38.18.8.53.76,1.62.09,2.4.96-1.11,1.09-2.77,0-3.86-.98-.98-2.89-1.13-3.85,0-1.91,2.22-1,5.53,1.8,6.46,1.87.64,4.18.16,6.11.04,2.11-.13,4.22-.18,6.33-.4,2.11-.22,4.16-.69,5.84-2.13,1.67-1.44,2.51-3.82,1.93-6.04-.49-1.84-1.93-3.42-3.51-4.41-2.98-1.86-6.85-1.82-10.16-1.05-3.98.93-7.84,3.26-9.78,6.95-.69,1.29-.33,2.97.98,3.73,1.24.73,3.04.33,3.73-.98l-.02.06-.03.02Z"/>
      <path d="M620.8,621.91c.05-.25.11-.51.18-.75.05-.16.36-.8.09-.27.25-.45.49-.91.8-1.33-.35.47.11-.11.22-.22.18-.18.36-.36.56-.53.04-.04.33-.26.07-.07-.27.2.11-.07.18-.11.22-.15.44-.27.67-.4.13-.07.27-.13.4-.2-.04.02-.44.15-.15.07.26-.07.49-.16.75-.22.16-.04.35-.07.51-.11-.07,0-.33.04,0,0,.38-.04.78-.04,1.16-.02,1.26.04,2.06.18,3.47.47.27.05.54.13.82.2.18.05.65.25.24.05.09.05.73.42.51.26-.27-.2.09.13.16.16.29.24-.2-.33-.04-.04.18.35-.11-.45,0-.07.02.11.05.2.09.31.02.09.04.4.02.05,0-.38,0,.07-.02.18v.33c0-.13.13-.55,0-.07-.04.09-.07.22-.09.31-.05.35.2-.33.02-.04-.11.18-.44.69-.11.27-.18.22-.38.4-.58.6-.2.22.02-.02.07-.05-.15.09-.27.18-.42.25-.11.05-.22.13-.33.18-.11.05-.6.24-.13.07-.51.16-1.02.33-1.56.44-.13.02-.25.04-.36.07.51-.09.11,0,0,0-.4.04-.8.05-1.2.07-1.55.05-3.09-.02-4.62.11-.38.04-.76.07-1.13.09h-.56c-.44,0,.31.09-.11,0-.09-.02-.51-.24-.22-.05s-.13-.27.04,0c.05.07.18.22.26.29-.27-.33.07.15.07.38-.02-1.42-1.24-2.8-2.73-2.73s-2.75,1.2-2.73,2.73c.04,2.31,1.76,4.21,4,4.68,1.87.4,3.91-.04,5.8-.04,3.54,0,7.73-.24,10.24-3.17s2.58-7.92-1.13-10.12c-1.44-.85-3.13-1.11-4.76-1.36-2.09-.31-4.2-.51-6.27.05-3.6.98-6.6,4.11-7.36,7.79-.29,1.4.4,3.02,1.91,3.37,1.36.31,3.05-.42,3.36-1.91l-.07.02v.03Z"/>
    </g>
  </g>
</svg>