<svg width="72" height="78" viewBox="0 0 72 78" fill="none" xmlns="http://www.w3.org/2000/svg">
<g clip-path="url(#clip0_64_1371)">
<path d="M51.7937 32.1934C51.7937 32.1934 63.7822 37.9822 71.7214 34.697" stroke="black" stroke-width="5" stroke-linecap="round" stroke-linejoin="round"/>
<path d="M63.5271 50.9986C64.9958 53.5549 63.1594 56.7505 60.2222 56.7505H3.82206C0.884827 56.7505 -0.9515 53.5549 0.517113 50.9986L28.7172 1.91689C30.1858 -0.63937 33.8573 -0.63937 35.3271 1.91689L63.5271 50.9986Z" fill="#DCF2AD"/>
<path d="M45.4915 28.0942C45.1694 26.6498 43.7844 25.5189 42.3113 25.4977C40.8382 25.4775 39.422 26.5692 39.061 28.0046" stroke="black" stroke-width="2" stroke-miterlimit="10" stroke-linecap="round"/>
<path d="M31.3088 28.0942C30.9868 26.6498 29.6018 25.5189 28.1287 25.4977C26.6556 25.4775 25.2394 26.5692 24.8784 28.0046" stroke="black" stroke-width="2" stroke-miterlimit="10" stroke-linecap="round"/>
<path d="M38.252 33.9502H31.3089C31.3089 33.9502 32.5357 45.1471 38.252 33.9502Z" stroke="black" stroke-width="2" stroke-linecap="round" stroke-linejoin="round"/>
<path d="M15.2267 38.9261C15.2267 38.9261 15.2267 50.9684 21.4543 52.5326" stroke="black" stroke-width="5" stroke-linecap="round" stroke-linejoin="round"/>
<path d="M46.053 57.4548C46.053 57.4548 47.0158 74.1214 39.061 74.2781" stroke="black" stroke-width="5" stroke-linecap="round" stroke-linejoin="round"/>
<path d="M24.8773 57.4548C24.8773 57.4548 26.2802 69.5844 21.4532 74.2781" stroke="black" stroke-width="5" stroke-linecap="round" stroke-linejoin="round"/>
<path d="M40.681 74.5633C38.9185 74.5633 37.4897 73.5828 37.4897 72.3732C37.4897 71.1637 38.9185 70.1831 40.681 70.1831C42.4435 70.1831 43.8723 71.1637 43.8723 72.3732C43.8723 73.5828 42.4435 74.5633 40.681 74.5633Z" stroke="black" stroke-width="5" stroke-linecap="round" stroke-linejoin="round"/>
<path d="M22.4817 74.7201C20.6238 74.7201 19.1177 73.6693 19.1177 72.3732C19.1177 71.077 20.6238 70.0263 22.4817 70.0263C24.3396 70.0263 25.8457 71.077 25.8457 72.3732C25.8457 73.6693 24.3396 74.7201 22.4817 74.7201Z" stroke="black" stroke-width="5" stroke-linecap="round" stroke-linejoin="round"/>
</g>
<defs>
<clipPath id="clip0_64_1371">
<rect width="72" height="78" fill="white" transform="matrix(-1 0 0 1 72 0)"/>
</clipPath>
</defs>
</svg>
