<svg width="149" height="161" viewBox="0 0 149 161" fill="none" xmlns="http://www.w3.org/2000/svg">
<g clip-path="url(#clip0_53_155)">
<path d="M41.8157 66.4504C41.8157 66.4504 17.0062 78.3991 0.576416 71.6182" stroke="black" stroke-width="5" stroke-linecap="round" stroke-linejoin="round"/>
<path d="M17.5343 105.266C14.4951 110.543 18.2953 117.139 24.3737 117.139H141.091C147.169 117.139 150.969 110.543 147.93 105.266L89.5716 3.95673C86.5324 -1.31964 78.9343 -1.31964 75.8928 3.95673L17.5343 105.266Z" fill="#DCF2AD"/>
<path d="M69.8396 70.0767H84.2079C84.2079 70.0767 81.669 93.1883 69.8396 70.0767Z" stroke="black" stroke-width="4" stroke-linecap="round" stroke-linejoin="round"/>
<path d="M117.489 80.3475C117.489 80.3475 117.489 105.204 104.602 108.433" stroke="black" stroke-width="5" stroke-linecap="round" stroke-linejoin="round"/>
<path d="M53.6958 118.593C53.6958 118.593 51.7035 152.994 68.1655 153.318" stroke="black" stroke-width="5" stroke-linecap="round" stroke-linejoin="round"/>
<path d="M97.5178 118.593C97.5178 118.593 94.6146 143.629 104.604 153.318" stroke="black" stroke-width="5" stroke-linecap="round" stroke-linejoin="round"/>
<path d="M64.8127 160.099C68.4601 160.099 71.4169 158.075 71.4169 155.578C71.4169 153.081 68.4601 151.057 64.8127 151.057C61.1653 151.057 58.2085 153.081 58.2085 155.578C58.2085 158.075 61.1653 160.099 64.8127 160.099Z" stroke="black" stroke-width="5" stroke-linecap="round" stroke-linejoin="round"/>
<path d="M102.476 160.422C106.32 160.422 109.437 158.253 109.437 155.578C109.437 152.903 106.32 150.734 102.476 150.734C98.6307 150.734 95.5139 152.903 95.5139 155.578C95.5139 158.253 98.6307 160.422 102.476 160.422Z" stroke="black" stroke-width="5" stroke-linecap="round" stroke-linejoin="round"/>
<path d="M95.2914 57.4723C94.3478 57.592 93.505 56.9604 93.409 56.0614C93.313 55.1625 94.0002 54.3367 94.9438 54.2169C95.8874 54.0971 96.7302 54.7287 96.8261 55.6277C96.9221 56.5266 96.235 57.3525 95.2914 57.4723Z" fill="black" stroke="black" stroke-width="5" stroke-linecap="round" stroke-linejoin="round"/>
<path d="M61.0563 58.7831C60.1127 58.9029 59.2699 58.2712 59.1739 57.3723C59.0779 56.4733 59.7651 55.6475 60.7087 55.5277C61.6523 55.408 62.4951 56.0396 62.591 56.9385C62.687 57.8375 61.9999 58.6633 61.0563 58.7831Z" fill="black" stroke="black" stroke-width="5" stroke-linecap="round" stroke-linejoin="round"/>
</g>
<defs>
<clipPath id="clip0_53_155">
<rect width="149" height="161" fill="white"/>
</clipPath>
</defs>
</svg>
