<?xml version="1.0" encoding="UTF-8"?>
<svg id="_레이어_11" data-name=" 레이어 11" xmlns="http://www.w3.org/2000/svg" xmlns:xlink="http://www.w3.org/1999/xlink" viewBox="0 0 1104 684">
  <defs>
    <style>
      .cls-1, .cls-2 {
        fill: none;
      }

      .cls-3 {
        fill: #d4e9b9;
      }

      .cls-2 {
        stroke: #000;
        stroke-miterlimit: 10;
      }

      .cls-4 {
        clip-path: url(#clippath);
      }
    </style>
    <clipPath id="clippath">
      <rect class="cls-1" x="728.94" y="88.94" width="197" height="260"/>
    </clipPath>
  </defs>
  <g class="cls-4">
    <g>
      <path class="cls-3" d="M811.57,101.28c-27.22,51.07-54.44,102.14-81.66,153.21-.34.91-2.44,6.84.81,12.94,3.61,6.79,10.75,8.01,11.52,8.14,57.95-1.24,115.91-2.49,173.86-3.71.81-.3,6.96-2.74,9.12-9.4,1.63-4.99,0-9.26-.49-10.43-32.47-50.41-64.94-100.82-97.4-151.23-.28-.34-3.5-4.12-8.59-3.66-4.4.41-6.82,3.66-7.18,4.16v-.02Z"/>
      <path d="M785.55,276.81c8.64,7.23,9.49,18.98,8.36,29.48-1.2,11.19-4.15,22.34-9.3,32.36-1.56,3.04,3,5.74,4.58,2.68,5.73-11.16,8.87-23.42,10.11-35.88,1.13-11.57-.6-24.54-10-32.43-2.6-2.19-6.38,1.56-3.75,3.77v.02Z"/>
      <path d="M856.32,274.8c4.45,2.02,6.73,6.25,7.92,10.86,1.38,5.35,1.84,11.03,2.01,16.54.35,11.3-1.2,22.51-4.51,33.32-1.01,3.29,4.1,4.69,5.11,1.42,3.69-12.01,5.29-24.66,4.6-37.23-.57-10.29-1.7-24.61-12.44-29.51-3.08-1.4-5.78,3.18-2.67,4.6h-.02,0Z"/>
      <path d="M786.42,344.46c.12-.23.25-.48.41-.71.05-.09.44-.6.21-.32.37-.44.78-.85,1.22-1.23.04-.04.23-.19,0,0,.11-.09.21-.16.32-.23.23-.16.44-.3.67-.44.27-.16.55-.32.83-.46.12-.05.25-.12.37-.18.41-.19-.3.11.12-.05,1.06-.43,2.16-.71,3.29-.91.49-.09-.23,0,.28-.04.25,0,.51-.04.76-.05.55,0,1.1,0,1.64.05.32.04-.04,0-.09,0,.12.02.25.05.37.07.25.05.48.11.72.18.11.04.69.25.48.16-.27-.12.11.05.12.07.14.09.28.16.42.23.14.07.27.18.39.27-.04-.04-.28-.25-.07-.04.09.09.49.51.35.36-.18-.21.07.11.09.12.07.12.16.25.21.37.14.3,0,.07,0,.04.05.2,0,.37.02.12.02-.44-.12.27.05-.11-.05.12-.41.57-.19.32-.09.09-.57.46-.28.29-.11.07-.23.14-.34.19-.37.2.25-.07-.18.07-.28.11-.57.18-.87.23-.14.04-.3.05-.44.09.07,0,.27-.04-.05,0-.69.07-1.38.11-2.07.14-1.7.11-3.41.21-5.11.3-.83.05-1.64.11-2.48.14-.09,0-1.06.02-1.06.02.02-.11.55.28.37.18.78.51.74,1.58.09,2.35.94-1.08,1.06-2.7,0-3.77-.95-.96-2.81-1.1-3.75,0-1.86,2.17-.97,5.4,1.75,6.31,1.82.62,4.07.16,5.94.04,2.05-.12,4.1-.18,6.15-.39,2.05-.21,4.05-.68,5.67-2.08s2.44-3.73,1.87-5.9c-.48-1.79-1.87-3.34-3.41-4.3-2.9-1.81-6.66-1.78-9.88-1.03-3.87.91-7.62,3.18-9.51,6.79-.67,1.26-.32,2.9.96,3.64,1.2.71,2.95.32,3.62-.96l-.02.05h.04Z"/>
      <path d="M865.53,342.08c.05-.25.11-.5.18-.73.05-.16.35-.78.09-.27.25-.44.48-.89.78-1.3-.34.46.11-.11.21-.21.18-.18.35-.36.55-.52.04-.03.32-.25.07-.07-.27.2.11-.07.18-.11.21-.14.42-.27.65-.39.12-.07.27-.12.39-.2-.04.02-.43.14-.14.07.25-.07.48-.16.73-.21.16-.04.34-.07.49-.11-.32.04-.07,0,0,0,.37-.03.76-.03,1.13-.02,1.22.04,2,.18,3.38.46.27.05.53.12.8.19.18.05.64.25.23.05.09.05.71.41.49.25-.26-.19.09.12.16.16.28.23-.2-.32-.04-.04.18.34-.11-.44,0-.07.02.11.05.2.09.3.02.09.04.39.02.05,0-.37,0,.07-.02.18v.32c0-.12.12-.53,0-.07-.04.09-.07.21-.09.3-.05.34.2-.32.02-.04-.11.18-.42.68-.11.27-.18.21-.37.39-.57.59-.19.21.02-.02.07-.05-.14.09-.26.18-.41.25-.11.05-.21.12-.32.18-.11.05-.58.23-.12.07-.49.16-.99.32-1.52.43-.12.02-.25.04-.35.07.11,0,.49-.09,0,0-.39.04-.78.05-1.17.07-1.5.05-3.01-.02-4.49.11-.37.04-.74.07-1.1.09h-.55c-.42,0,.3.09-.11,0-.09-.02-.5-.23-.21-.05.28.18-.12-.27.04,0,.05.07.18.21.25.28-.26-.32.07.14.07.37-.02-1.39-1.2-2.74-2.65-2.66s-2.67,1.17-2.65,2.66c.04,2.26,1.71,4.1,3.89,4.57,1.82.39,3.8-.04,5.64-.04,3.45,0,7.51-.23,9.95-3.09s2.51-7.73-1.1-9.88c-1.4-.84-3.04-1.08-4.63-1.33-2.03-.3-4.08-.5-6.1.05-3.5.96-6.42,4.02-7.16,7.61-.28,1.37.39,2.95,1.86,3.29,1.33.3,2.97-.41,3.27-1.87l-.07.02v.02Z"/>
      <path d="M803.64,192.64c6.88,7.94,17.83,11.48,28.05,9.49,1.41-.27,2.21-1.97,1.86-3.29-.41-1.47-1.86-2.13-3.27-1.87-8.41,1.65-17.3-1.67-22.89-8.12-.94-1.08-2.79-.98-3.75,0-1.08,1.08-.94,2.68,0,3.77v.02h0Z"/>
      <path d="M841.78,201.45c8.31,1.33,17.23-3.02,20.71-10.89.58-1.32.39-2.86-.96-3.64-1.13-.66-3.04-.37-3.62.96-.34.76-.73,1.49-1.17,2.2-.14.21-.28.41-.42.62-.27.39.07-.07-.11.16-.26.32-.53.64-.81.94-.28.3-.58.6-.88.87-.16.14-.3.28-.46.41,0,0-.53.44-.32.27.23-.18-.28.21-.34.25-.19.14-.41.28-.62.43-.35.23-.71.44-1.06.64s-.74.39-1.11.57c-.42.21.11-.04-.16.07-.19.07-.39.16-.58.23-.78.28-1.57.51-2.39.68-.25.05-.49.09-.73.12.27-.05.2-.02-.04,0-.46.05-.9.09-1.36.09-.41,0-.83,0-1.24-.02-.21,0-.41-.04-.62-.05-.58-.04.35.07-.28-.04-1.36-.21-2.92.36-3.27,1.87-.28,1.28.39,3.04,1.85,3.29l-.03-.02h.02Z"/>
      <path d="M834.76,224.18c.05-.18.11-.36.16-.53.09-.25.18-.41.02-.07.16-.32.34-.66.53-.96.05-.07.48-.64.09-.18.09-.11.18-.23.28-.34.25-.27.51-.51.78-.78.51-.48-.42.27.16-.12.12-.09.25-.16.37-.25.32-.2.64-.36.95-.53-.51.28.05,0,.18-.05.14-.05.28-.09.42-.12.21-.05.43-.11.64-.16.5-.11-.26,0,.05,0,.37,0,.72-.03,1.1,0,.14,0,.65.09.05,0,.18.04.35.05.53.11.35.07.71.18,1.04.3.14.05.53.28.07.02.16.09.34.16.49.25.32.18.62.39.92.59.25.16-.28-.29.07.05.12.12.26.25.41.37.14.12.25.27.37.39.35.34-.11-.2.05.05.23.34.44.68.62,1.03.64,1.24,2.46,1.71,3.62.96,1.25-.82,1.64-2.33.95-3.64-1.94-3.73-6.33-6.24-10.53-5.78-4.45.48-8.27,3.62-9.51,8-.37,1.33.46,2.97,1.86,3.29,1.4.32,2.86-.43,3.27-1.87l-.02-.02h.01Z"/>
      <path d="M780.8,211.37c.99,27.45,2.63,54.87,4.91,82.25.28,3.39,5.58,3.43,5.3,0-2.28-27.38-3.91-54.8-4.91-82.25-.12-3.41-5.43-3.43-5.3,0Z"/>
      <path d="M894.77,273.36c-.57,4-.53,7.93.12,11.92.11.62.71,1.3,1.22,1.6.57.34,1.41.48,2.05.27,1.48-.48,2.1-1.79,1.86-3.29-.04-.2-.07-.41-.09-.6-.02-.14-.04-.27-.05-.41.05.34.05.41.04.21-.04-.41-.09-.8-.12-1.21-.07-.84-.11-1.69-.12-2.54-.02-.85,0-1.62.05-2.43.02-.41.05-.82.09-1.21.02-.23.05-.48.07-.71.09-.73-.05.36.02-.2.11-.75.12-1.39-.26-2.06-.32-.55-.96-1.08-1.59-1.23-1.26-.29-3.06.39-3.27,1.86v.02h-.02Z"/>
      <path d="M796.39,110.33c-2.55-.34-4.7,1.42-5.85,3.55-.58,1.08-.9,2.24-1.11,3.45-.21,1.21-.25,2.9-1.18,3.75-.78.69-2.12.84-3.04,1.31-1.13.57-2.12,1.4-2.72,2.54-1.31,2.51.11,4.66-.09,7.18-.12,1.67-2.88,2.24-4.1,3.16-.97.75-1.75,1.67-2.12,2.86-.46,1.47-.04,2.72.05,4.19.14,2.08-3.99,2.63-5.44,3.59-2.26,1.49-4.24,3.87-4.31,6.72-.02.76.14,1.55.39,2.26.09.25.39.69.39.94,0-.53.09-.2-.51.04-1.31.5-2.51,1.19-3.46,2.22-2.03,2.22-2.72,5.46-1.77,8.32,1.08,3.23,6.2,1.85,5.11-1.42-1.22-3.7,2.47-3.77,4.45-5.56,1.08-.96,1.66-2.26,1.56-3.73-.11-1.47-1.34-2.63-.39-4.05,1.71-2.54,5.71-2.52,7.81-4.78.99-1.07,1.54-2.51,1.54-3.96,0-.84-.73-2.68-.25-3.32.55-.75,2.24-1.19,3.02-1.67,1.04-.66,2.01-1.49,2.62-2.59.76-1.37.81-2.91.6-4.42-.12-.91-.87-2.81-.3-3.61.53-.75,2.67-.99,3.46-1.46,1.26-.73,2.16-1.83,2.76-3.15.64-1.39.9-7.29,2.9-7.02,1.43.2,2.63-1.37,2.65-2.67,0-1.6-1.24-2.47-2.65-2.67h-.02Z"/>
      <path class="cls-2" d="M836.92,92.95l.49,53.18"/>
      <path class="cls-2" d="M845.4,88.94v64.22"/>
      <path class="cls-2" d="M852.89,94.46l.99,56.68"/>
      <path class="cls-2" d="M859.88,93.95l.49,35.13"/>
    </g>
  </g>
</svg>